<?xml version="1.0" encoding="UTF-8" standalone="no"?>
<!DOCTYPE svg PUBLIC "-//W3C//DTD SVG 1.1//EN" "http://www.w3.org/Graphics/SVG/1.1/DTD/svg11.dtd">
<svg width="100%" height="100%" viewBox="0 0 800 600" version="1.1" xmlns="http://www.w3.org/2000/svg" xmlns:xlink="http://www.w3.org/1999/xlink" xml:space="preserve" xmlns:serif="http://www.serif.com/" style="fill:rgb(205,205,205);fill-rule:evenodd;clip-rule:evenodd;stroke-linejoin:round;stroke-miterlimit:2;">
    <path id="facebook-icon" serif:id="facebook icon" d="M365.168,507.216C263.661,491.761 185.833,405.043 185.833,300.52C185.833,185.089 280.753,91.373 397.667,91.373C514.581,91.373 609.5,185.089 609.5,300.52C609.5,404.835 531.982,491.416 430.75,507.126L430.75,358.25L479.5,358.25C481,349.5 489.25,300 489.25,300L431.25,300L431.25,252.75C432.25,232.25 458.25,228.25 458.25,228.25L491.5,228.25L491.5,177.5C470,170 437.5,171 437.5,171C369,182 366,236.5 366,236.5L366,300L312,300L312,357.5L365,357.5L365,501.5L365.168,507.216Z"/>
</svg>
