<?xml version="1.0" encoding="UTF-8" standalone="no"?>
<!DOCTYPE svg PUBLIC "-//W3C//DTD SVG 1.1//EN" "http://www.w3.org/Graphics/SVG/1.1/DTD/svg11.dtd">
<svg width="100%" height="100%" viewBox="0 0 800 600" version="1.1" xmlns="http://www.w3.org/2000/svg" xmlns:xlink="http://www.w3.org/1999/xlink" xml:space="preserve" xmlns:serif="http://www.serif.com/" style="fill:rgb(205,205,205);fill-rule:evenodd;clip-rule:evenodd;stroke-linejoin:round;stroke-miterlimit:2;">
    <path id="twitter-icon" serif:id="twitter icon" d="M409.035,237.216C409.035,237.216 311.368,243.856 226.785,148.716C226.785,148.716 186.953,218.076 254.953,260.576C254.953,260.576 231.453,263.076 214.953,250.326C214.953,250.326 206.203,315.576 284.453,334.326C284.453,334.326 264.703,339.576 246.703,337.076C246.703,337.076 259.203,392.076 328.453,393.076C328.453,393.076 271.203,439.076 197.953,427.826C197.953,427.826 238.453,464.326 327.453,465.826C327.453,465.826 479.743,478.576 552.953,337.076C552.953,337.076 584.663,286.326 580.413,217.076C580.413,217.076 600.663,205.326 625.913,173.576C625.913,173.576 583.163,191.576 571.413,185.826C571.413,185.826 601.913,177.496 612.913,140.076C612.913,140.076 595.413,153.656 557.913,161.156C557.913,161.156 522.163,124.656 468.663,137.656C468.663,137.656 439.163,143.156 417.913,174.156C417.913,174.156 396.408,204.526 409.035,237.216Z"/>
</svg>
